<?xml version="1.0" standalone="no"?>
<!DOCTYPE svg PUBLIC "-//W3C//DTD SVG 20010904//EN"
 "http://www.w3.org/TR/2001/REC-SVG-20010904/DTD/svg10.dtd">
<svg version="1.0" xmlns="http://www.w3.org/2000/svg"
 width="1080.000000pt" height="1080.000000pt" viewBox="0 0 1080.000000 1080.000000"
 preserveAspectRatio="xMidYMid meet">
<metadata>
Created by potrace 1.14, written by Peter Selinger 2001-2017
</metadata>
<g transform="translate(0.000000,1080.000000) scale(0.100000,-0.100000)"
fill="#000000" stroke="none">
<path d="M5085 9483 c-117 -9 -335 -47 -431 -74 -118 -33 -284 -108 -351 -157
-40 -30 -84 -92 -65 -92 5 0 47 18 93 39 131 61 331 114 484 129 197 18 324
-1 404 -58 161 -117 76 -343 -254 -676 -206 -208 -308 -293 -825 -689 -721
-552 -1113 -894 -1501 -1311 -83 -89 -285 -332 -365 -439 -185 -247 -408 -634
-503 -871 -85 -214 -165 -484 -195 -659 -44 -255 -65 -506 -43 -523 18 -14
191 -77 309 -113 198 -59 490 -128 648 -153 329 -52 587 -71 920 -70 312 1
534 26 800 90 750 183 1419 645 1849 1279 68 100 151 236 151 247 0 3 -9 8
-20 11 -29 8 -59 -21 -114 -109 -173 -278 -481 -569 -786 -746 -350 -203 -707
-332 -1145 -413 -423 -78 -946 -92 -1252 -34 -322 60 -556 178 -681 342 -57
74 -94 148 -108 212 -1 6 -6 28 -11 50 -10 43 -10 184 0 250 4 22 9 60 12 85
16 127 82 323 171 508 195 406 551 853 1061 1332 114 108 127 119 278 250 279
241 361 306 1068 834 421 315 587 456 846 716 137 138 267 292 365 433 64 93
141 225 135 231 -8 8 -129 56 -204 81 -146 49 -279 68 -500 69 -110 1 -218 1
-240 -1z"/>
<path d="M7327 7034 c-1 -1 -69 -4 -152 -8 -82 -3 -161 -8 -175 -10 -14 -2
-65 -10 -115 -16 -449 -57 -914 -231 -1310 -489 -377 -245 -723 -604 -957
-992 -25 -42 -49 -86 -52 -97 -6 -19 -4 -22 23 -22 27 0 37 11 105 113 163
244 334 426 559 594 351 264 830 463 1337 557 167 30 192 34 255 41 28 4 61 8
75 10 114 20 680 28 815 12 361 -43 631 -156 797 -335 104 -113 159 -264 153
-422 -23 -559 -362 -1155 -1050 -1846 -392 -393 -684 -638 -1370 -1149 -544
-406 -688 -522 -925 -750 -193 -186 -337 -351 -463 -531 -58 -84 -137 -213
-137 -226 0 -9 73 -41 178 -79 84 -29 232 -62 331 -73 59 -7 384 -8 441 -1 19
2 60 6 90 9 325 30 689 168 743 281 l17 35 -38 -16 c-126 -57 -217 -89 -315
-114 -134 -33 -166 -38 -323 -46 -199 -11 -327 33 -373 128 -26 55 -27 102 -1
177 50 150 186 320 456 572 100 93 308 261 624 504 273 209 635 493 676 530 6
5 24 21 40 34 32 27 209 179 263 226 98 85 174 158 361 345 405 404 607 658
860 1080 124 207 214 400 302 647 51 143 122 440 144 598 3 28 8 58 10 68 5
29 15 166 18 245 l3 74 -46 20 c-78 34 -308 106 -466 148 -380 99 -731 151
-1115 166 -243 9 -291 10 -293 8z"/>
</g>
</svg>
